<svg width="550" height="550" viewBox="0 0 550 550" fill="none" xmlns="http://www.w3.org/2000/svg">
<rect width="550" height="550" fill="#060606"/>
<path d="M91.655 338V260.72H112.615V338H91.655ZM112.615 295.28L104.455 289.84C105.415 280.347 108.188 272.88 112.775 267.44C117.362 261.893 123.975 259.12 132.615 259.12C136.348 259.12 139.708 259.76 142.695 261.04C145.682 262.213 148.402 264.187 150.855 266.96L137.735 282C136.562 280.72 135.122 279.76 133.415 279.12C131.815 278.48 129.948 278.16 127.815 278.16C123.335 278.16 119.655 279.6 116.775 282.48C114.002 285.253 112.615 289.52 112.615 295.28ZM192.99 339.6C184.883 339.6 177.683 337.893 171.39 334.48C165.097 330.96 160.083 326.16 156.35 320.08C152.723 314 150.91 307.067 150.91 299.28C150.91 291.6 152.67 284.773 156.19 278.8C159.817 272.72 164.723 267.92 170.91 264.4C177.097 260.773 183.977 258.96 191.55 258.96C199.017 258.96 205.577 260.667 211.23 264.08C216.99 267.387 221.47 271.973 224.67 277.84C227.977 283.6 229.63 290.16 229.63 297.52C229.63 298.907 229.523 300.347 229.31 301.84C229.203 303.227 228.937 304.827 228.51 306.64L163.55 306.8V291.12L218.75 290.96L210.27 297.52C210.057 292.933 209.203 289.093 207.71 286C206.323 282.907 204.243 280.56 201.47 278.96C198.803 277.253 195.497 276.4 191.55 276.4C187.39 276.4 183.763 277.36 180.67 279.28C177.577 281.093 175.177 283.707 173.47 287.12C171.87 290.427 171.07 294.373 171.07 298.96C171.07 303.653 171.923 307.76 173.63 311.28C175.443 314.693 178.003 317.36 181.31 319.28C184.617 321.093 188.457 322 192.83 322C196.777 322 200.35 321.36 203.55 320.08C206.75 318.693 209.523 316.667 211.87 314L224.19 326.32C220.457 330.693 215.87 334 210.43 336.24C205.097 338.48 199.283 339.6 192.99 339.6ZM275.233 339.6C268.086 339.6 261.686 337.84 256.033 334.32C250.379 330.8 245.899 326 242.593 319.92C239.393 313.84 237.793 307.013 237.793 299.44C237.793 291.76 239.393 284.88 242.593 278.8C245.899 272.72 250.326 267.92 255.873 264.4C261.526 260.88 267.979 259.12 275.233 259.12C280.779 259.12 285.739 260.24 290.113 262.48C294.593 264.72 298.166 267.867 300.833 271.92C303.606 275.867 305.099 280.347 305.313 285.36V312.88C305.099 317.893 303.659 322.427 300.993 326.48C298.326 330.533 294.753 333.733 290.273 336.08C285.793 338.427 280.779 339.6 275.233 339.6ZM278.753 320.24C282.699 320.24 286.113 319.387 288.993 317.68C291.979 315.867 294.273 313.413 295.873 310.32C297.579 307.12 298.433 303.44 298.433 299.28C298.433 295.227 297.579 291.653 295.873 288.56C294.273 285.36 291.979 282.907 288.993 281.2C286.113 279.387 282.753 278.48 278.913 278.48C274.966 278.48 271.499 279.387 268.513 281.2C265.633 283.013 263.339 285.467 261.633 288.56C260.033 291.653 259.233 295.227 259.233 299.28C259.233 303.44 260.033 307.12 261.633 310.32C263.339 313.413 265.686 315.867 268.673 317.68C271.659 319.387 275.019 320.24 278.753 320.24ZM318.113 338H297.313V317.2L300.673 298.32L297.153 279.76V222.32H318.113V338ZM368.975 339.6C361.935 339.6 355.588 337.84 349.935 334.32C344.282 330.8 339.855 326 336.655 319.92C333.455 313.84 331.855 307.013 331.855 299.44C331.855 291.76 333.455 284.88 336.655 278.8C339.855 272.72 344.282 267.92 349.935 264.4C355.588 260.88 361.935 259.12 368.975 259.12C374.522 259.12 379.482 260.24 383.855 262.48C388.228 264.72 391.695 267.867 394.255 271.92C396.922 275.867 398.362 280.347 398.575 285.36V313.2C398.362 318.32 396.922 322.853 394.255 326.8C391.695 330.747 388.228 333.893 383.855 336.24C379.482 338.48 374.522 339.6 368.975 339.6ZM372.815 320.24C378.682 320.24 383.428 318.32 387.055 314.48C390.682 310.533 392.495 305.467 392.495 299.28C392.495 295.227 391.642 291.653 389.935 288.56C388.335 285.36 386.042 282.907 383.055 281.2C380.175 279.387 376.762 278.48 372.815 278.48C368.975 278.48 365.562 279.387 362.575 281.2C359.695 282.907 357.402 285.36 355.695 288.56C354.095 291.653 353.295 295.227 353.295 299.28C353.295 303.44 354.095 307.12 355.695 310.32C357.402 313.413 359.695 315.867 362.575 317.68C365.562 319.387 368.975 320.24 372.815 320.24ZM391.375 338V317.2L394.735 298.32L391.375 279.76V260.72H412.175V338H391.375ZM445.118 339.6C441.278 339.6 438.131 338.32 435.678 335.76C433.224 333.2 431.997 330.053 431.997 326.32C431.997 322.587 433.224 319.44 435.678 316.88C438.131 314.32 441.278 313.04 445.118 313.04C448.851 313.04 451.944 314.32 454.398 316.88C456.851 319.44 458.078 322.587 458.078 326.32C458.078 330.053 456.851 333.2 454.398 335.76C451.944 338.32 448.851 339.6 445.118 339.6Z" fill="white"/>
</svg>
