<svg width="550" height="550" viewBox="0 0 550 550" fill="none" xmlns="http://www.w3.org/2000/svg">
<rect width="550" height="550" fill="#060606"/>
<path d="M85.0497 333V245.727H108.516V260.955H109.425C111.016 255.538 113.686 251.447 117.436 248.682C121.186 245.879 125.504 244.477 130.391 244.477C131.603 244.477 132.91 244.553 134.311 244.705C135.713 244.856 136.944 245.064 138.004 245.33V266.807C136.868 266.466 135.296 266.163 133.288 265.898C131.281 265.633 129.444 265.5 127.777 265.5C124.216 265.5 121.035 266.277 118.232 267.83C115.466 269.345 113.269 271.466 111.641 274.193C110.05 276.92 109.254 280.064 109.254 283.625V333H85.0497ZM186.229 334.705C177.251 334.705 169.524 332.886 163.047 329.25C156.607 325.576 151.645 320.386 148.161 313.682C144.676 306.939 142.933 298.966 142.933 289.761C142.933 280.784 144.676 272.905 148.161 266.125C151.645 259.345 156.551 254.061 162.876 250.273C169.24 246.485 176.702 244.591 185.263 244.591C191.02 244.591 196.38 245.519 201.342 247.375C206.342 249.193 210.698 251.939 214.411 255.614C218.161 259.288 221.077 263.909 223.161 269.477C225.244 275.008 226.286 281.485 226.286 288.909V295.557H152.592V280.557H203.501C203.501 277.072 202.744 273.985 201.229 271.295C199.714 268.606 197.611 266.504 194.922 264.989C192.27 263.436 189.183 262.659 185.661 262.659C181.986 262.659 178.729 263.511 175.888 265.216C173.085 266.883 170.888 269.136 169.297 271.977C167.706 274.78 166.892 277.905 166.854 281.352V295.614C166.854 299.932 167.649 303.663 169.24 306.807C170.869 309.951 173.161 312.375 176.115 314.08C179.07 315.784 182.573 316.636 186.626 316.636C189.316 316.636 191.778 316.258 194.013 315.5C196.248 314.742 198.161 313.606 199.751 312.091C201.342 310.576 202.554 308.72 203.388 306.523L225.774 308C224.638 313.379 222.308 318.076 218.786 322.091C215.301 326.068 210.793 329.174 205.263 331.409C199.77 333.606 193.426 334.705 186.229 334.705ZM274.24 334.42C267.611 334.42 261.607 332.716 256.229 329.307C250.888 325.86 246.645 320.803 243.501 314.136C240.395 307.432 238.842 299.212 238.842 289.477C238.842 279.477 240.452 271.163 243.672 264.534C246.892 257.867 251.172 252.886 256.513 249.591C261.892 246.258 267.782 244.591 274.183 244.591C279.07 244.591 283.142 245.424 286.399 247.091C289.695 248.72 292.346 250.765 294.354 253.227C296.399 255.652 297.952 258.038 299.013 260.386H299.751V216.636H323.899V333H300.036V319.023H299.013C297.876 321.447 296.267 323.852 294.183 326.239C292.138 328.587 289.467 330.538 286.172 332.091C282.914 333.644 278.937 334.42 274.24 334.42ZM281.911 315.159C285.812 315.159 289.107 314.098 291.797 311.977C294.524 309.818 296.607 306.807 298.047 302.943C299.524 299.08 300.263 294.553 300.263 289.364C300.263 284.174 299.543 279.667 298.104 275.841C296.664 272.015 294.581 269.061 291.854 266.977C289.126 264.894 285.812 263.852 281.911 263.852C277.933 263.852 274.581 264.932 271.854 267.091C269.126 269.25 267.062 272.242 265.661 276.068C264.259 279.894 263.558 284.326 263.558 289.364C263.558 294.439 264.259 298.928 265.661 302.83C267.1 306.693 269.164 309.723 271.854 311.92C274.581 314.08 277.933 315.159 281.911 315.159ZM368.686 334.648C363.118 334.648 358.156 333.682 353.8 331.75C349.444 329.78 345.997 326.883 343.459 323.057C340.959 319.193 339.709 314.383 339.709 308.625C339.709 303.777 340.599 299.705 342.379 296.409C344.16 293.114 346.584 290.462 349.652 288.455C352.72 286.447 356.205 284.932 360.107 283.909C364.046 282.886 368.175 282.167 372.493 281.75C377.569 281.22 381.66 280.727 384.766 280.273C387.872 279.78 390.125 279.061 391.527 278.114C392.929 277.167 393.629 275.765 393.629 273.909V273.568C393.629 269.97 392.493 267.186 390.22 265.216C387.985 263.246 384.804 262.261 380.675 262.261C376.319 262.261 372.853 263.227 370.277 265.159C367.701 267.053 365.997 269.439 365.163 272.318L342.777 270.5C343.913 265.197 346.148 260.614 349.482 256.75C352.815 252.848 357.114 249.856 362.379 247.773C367.682 245.652 373.819 244.591 380.788 244.591C385.637 244.591 390.277 245.159 394.709 246.295C399.179 247.432 403.137 249.193 406.584 251.58C410.069 253.966 412.815 257.034 414.822 260.784C416.83 264.496 417.834 268.947 417.834 274.136V333H394.879V320.898H394.197C392.796 323.625 390.921 326.03 388.572 328.114C386.224 330.159 383.402 331.769 380.107 332.943C376.811 334.08 373.004 334.648 368.686 334.648ZM375.618 317.943C379.179 317.943 382.322 317.242 385.05 315.841C387.777 314.402 389.917 312.47 391.47 310.045C393.023 307.621 393.8 304.875 393.8 301.807V292.545C393.042 293.038 392 293.492 390.675 293.909C389.387 294.288 387.929 294.648 386.3 294.989C384.671 295.292 383.042 295.576 381.413 295.841C379.785 296.068 378.307 296.277 376.982 296.466C374.141 296.883 371.66 297.545 369.538 298.455C367.417 299.364 365.769 300.595 364.595 302.148C363.421 303.663 362.834 305.557 362.834 307.83C362.834 311.125 364.027 313.644 366.413 315.386C368.838 317.091 371.906 317.943 375.618 317.943ZM450.76 334.477C447.01 334.477 443.79 333.152 441.101 330.5C438.449 327.811 437.124 324.591 437.124 320.841C437.124 317.129 438.449 313.947 441.101 311.295C443.79 308.644 447.01 307.318 450.76 307.318C454.396 307.318 457.578 308.644 460.305 311.295C463.033 313.947 464.396 317.129 464.396 320.841C464.396 323.341 463.752 325.633 462.464 327.716C461.214 329.761 459.567 331.409 457.521 332.659C455.476 333.871 453.222 334.477 450.76 334.477Z" fill="white"/>
</svg>
