<svg width="380" height="119" viewBox="0 0 380 119" fill="none" xmlns="http://www.w3.org/2000/svg">
<path d="M0.0497162 117V29.7273H23.5156V44.9545H24.4247C26.0156 39.5379 28.6861 35.447 32.4361 32.6818C36.1861 29.8788 40.5043 28.4773 45.3906 28.4773C46.6027 28.4773 47.9096 28.553 49.3111 28.7045C50.7126 28.8561 51.9437 29.0644 53.0043 29.3295V50.8068C51.8679 50.4659 50.2959 50.1629 48.2884 49.8977C46.2808 49.6326 44.4437 49.5 42.777 49.5C39.2164 49.5 36.0346 50.2765 33.2315 51.8295C30.4664 53.3447 28.2694 55.4659 26.6406 58.1932C25.0497 60.9205 24.2543 64.0644 24.2543 67.625V117H0.0497162ZM101.229 118.705C92.2514 118.705 84.5241 116.886 78.0469 113.25C71.6075 109.576 66.6454 104.386 63.1605 97.6818C59.6757 90.9394 57.9332 82.9659 57.9332 73.7614C57.9332 64.7841 59.6757 56.9053 63.1605 50.125C66.6454 43.3447 71.5507 38.0606 77.8764 34.2727C84.2401 30.4848 91.7022 28.5909 100.263 28.5909C106.02 28.5909 111.38 29.5189 116.342 31.375C121.342 33.1932 125.698 35.9394 129.411 39.6136C133.161 43.2879 136.077 47.9091 138.161 53.4773C140.244 59.0076 141.286 65.4848 141.286 72.9091V79.5568H67.5923V64.5568H118.501C118.501 61.072 117.744 57.9848 116.229 55.2955C114.714 52.6061 112.611 50.5038 109.922 48.9886C107.27 47.4356 104.183 46.6591 100.661 46.6591C96.9863 46.6591 93.7287 47.5114 90.8878 49.2159C88.0848 50.8826 85.8878 53.1364 84.2969 55.9773C82.706 58.7803 81.8916 61.9053 81.8537 65.3523V79.6136C81.8537 83.9318 82.6491 87.6629 84.2401 90.8068C85.8688 93.9508 88.1605 96.375 91.1151 98.0795C94.0696 99.7841 97.5734 100.636 101.626 100.636C104.316 100.636 106.778 100.258 109.013 99.5C111.248 98.7424 113.161 97.6061 114.751 96.0909C116.342 94.5758 117.554 92.7197 118.388 90.5227L140.774 92C139.638 97.3788 137.308 102.076 133.786 106.091C130.301 110.068 125.793 113.174 120.263 115.409C114.77 117.606 108.426 118.705 101.229 118.705ZM189.24 118.42C182.611 118.42 176.607 116.716 171.229 113.307C165.888 109.86 161.645 104.803 158.501 98.1364C155.395 91.4318 153.842 83.2121 153.842 73.4773C153.842 63.4773 155.452 55.1629 158.672 48.5341C161.892 41.8674 166.172 36.8864 171.513 33.5909C176.892 30.2576 182.782 28.5909 189.183 28.5909C194.07 28.5909 198.142 29.4242 201.399 31.0909C204.695 32.7197 207.346 34.7652 209.354 37.2273C211.399 39.6515 212.952 42.0379 214.013 44.3864H214.751V0.63636H238.899V117H215.036V103.023H214.013C212.876 105.447 211.267 107.852 209.183 110.239C207.138 112.587 204.467 114.538 201.172 116.091C197.914 117.644 193.937 118.42 189.24 118.42ZM196.911 99.1591C200.812 99.1591 204.107 98.0985 206.797 95.9773C209.524 93.8182 211.607 90.8068 213.047 86.9432C214.524 83.0795 215.263 78.553 215.263 73.3636C215.263 68.1742 214.543 63.6667 213.104 59.8409C211.664 56.0151 209.581 53.0606 206.854 50.9773C204.126 48.8939 200.812 47.8523 196.911 47.8523C192.933 47.8523 189.581 48.9318 186.854 51.0909C184.126 53.25 182.062 56.2424 180.661 60.0682C179.259 63.8939 178.558 68.3258 178.558 73.3636C178.558 78.4394 179.259 82.928 180.661 86.8295C182.1 90.6932 184.164 93.7235 186.854 95.9205C189.581 98.0795 192.933 99.1591 196.911 99.1591ZM283.686 118.648C278.118 118.648 273.156 117.682 268.8 115.75C264.444 113.78 260.997 110.883 258.459 107.057C255.959 103.193 254.709 98.3826 254.709 92.625C254.709 87.7765 255.599 83.7045 257.379 80.4091C259.16 77.1136 261.584 74.4621 264.652 72.4545C267.72 70.447 271.205 68.9318 275.107 67.9091C279.046 66.8864 283.175 66.1667 287.493 65.75C292.569 65.2197 296.66 64.7273 299.766 64.2727C302.872 63.7803 305.125 63.0606 306.527 62.1136C307.929 61.1667 308.629 59.7652 308.629 57.9091V57.5682C308.629 53.9697 307.493 51.1856 305.22 49.2159C302.985 47.2462 299.804 46.2614 295.675 46.2614C291.319 46.2614 287.853 47.2273 285.277 49.1591C282.701 51.053 280.997 53.4394 280.163 56.3182L257.777 54.5C258.913 49.197 261.148 44.6136 264.482 40.75C267.815 36.8485 272.114 33.8561 277.379 31.7727C282.682 29.6515 288.819 28.5909 295.788 28.5909C300.637 28.5909 305.277 29.1591 309.709 30.2955C314.179 31.4318 318.137 33.1932 321.584 35.5795C325.069 37.9659 327.815 41.0341 329.822 44.7841C331.83 48.4962 332.834 52.947 332.834 58.1364V117H309.879V104.898H309.197C307.796 107.625 305.921 110.03 303.572 112.114C301.224 114.159 298.402 115.769 295.107 116.943C291.811 118.08 288.004 118.648 283.686 118.648ZM290.618 101.943C294.179 101.943 297.322 101.242 300.05 99.8409C302.777 98.4015 304.917 96.4697 306.47 94.0455C308.023 91.6212 308.8 88.875 308.8 85.8068V76.5455C308.042 77.0379 307 77.4924 305.675 77.9091C304.387 78.2879 302.929 78.6477 301.3 78.9886C299.671 79.2917 298.042 79.5758 296.413 79.8409C294.785 80.0682 293.307 80.2765 291.982 80.4659C289.141 80.8826 286.66 81.5455 284.538 82.4545C282.417 83.3636 280.769 84.5947 279.595 86.1477C278.421 87.6629 277.834 89.5568 277.834 91.8295C277.834 95.125 279.027 97.6439 281.413 99.3864C283.838 101.091 286.906 101.943 290.618 101.943ZM365.76 118.477C362.01 118.477 358.79 117.152 356.101 114.5C353.449 111.811 352.124 108.591 352.124 104.841C352.124 101.129 353.449 97.947 356.101 95.2955C358.79 92.6439 362.01 91.3182 365.76 91.3182C369.396 91.3182 372.578 92.6439 375.305 95.2955C378.033 97.947 379.396 101.129 379.396 104.841C379.396 107.341 378.752 109.633 377.464 111.716C376.214 113.761 374.567 115.409 372.521 116.659C370.476 117.871 368.222 118.477 365.76 118.477Z" fill="#181818"/>
</svg>
