<svg width="368" height="118" viewBox="0 0 368 118" fill="none" xmlns="http://www.w3.org/2000/svg">
<path d="M0.655 116V38.72H21.615V116H0.655ZM21.615 73.28L13.455 67.84C14.415 58.3467 17.1883 50.88 21.775 45.44C26.3617 39.8933 32.975 37.12 41.615 37.12C45.3483 37.12 48.7083 37.76 51.695 39.04C54.6817 40.2133 57.4017 42.1867 59.855 44.96L46.735 60C45.5617 58.72 44.1217 57.76 42.415 57.12C40.815 56.48 38.9483 56.16 36.815 56.16C32.335 56.16 28.655 57.6 25.775 60.48C23.0017 63.2533 21.615 67.52 21.615 73.28ZM101.99 117.6C93.8833 117.6 86.6833 115.893 80.39 112.48C74.0967 108.96 69.0833 104.16 65.35 98.08C61.7233 92 59.91 85.0667 59.91 77.28C59.91 69.6 61.67 62.7733 65.19 56.8C68.8167 50.72 73.7233 45.92 79.91 42.4C86.0967 38.7733 92.9767 36.96 100.55 36.96C108.017 36.96 114.577 38.6667 120.23 42.08C125.99 45.3867 130.47 49.9733 133.67 55.84C136.977 61.6 138.63 68.16 138.63 75.52C138.63 76.9067 138.523 78.3467 138.31 79.84C138.203 81.2267 137.937 82.8267 137.51 84.64L72.55 84.8V69.12L127.75 68.96L119.27 75.52C119.057 70.9333 118.203 67.0933 116.71 64C115.323 60.9067 113.243 58.56 110.47 56.96C107.803 55.2533 104.497 54.4 100.55 54.4C96.39 54.4 92.7633 55.36 89.67 57.28C86.5767 59.0933 84.1767 61.7067 82.47 65.12C80.87 68.4267 80.07 72.3733 80.07 76.96C80.07 81.6533 80.9233 85.76 82.63 89.28C84.4433 92.6933 87.0033 95.36 90.31 97.28C93.6167 99.0933 97.4567 100 101.83 100C105.777 100 109.35 99.36 112.55 98.08C115.75 96.6933 118.523 94.6667 120.87 92L133.19 104.32C129.457 108.693 124.87 112 119.43 114.24C114.097 116.48 108.283 117.6 101.99 117.6ZM184.233 117.6C177.086 117.6 170.686 115.84 165.033 112.32C159.379 108.8 154.899 104 151.593 97.92C148.393 91.84 146.793 85.0133 146.793 77.44C146.793 69.76 148.393 62.88 151.593 56.8C154.899 50.72 159.326 45.92 164.873 42.4C170.526 38.88 176.979 37.12 184.233 37.12C189.779 37.12 194.739 38.24 199.113 40.48C203.593 42.72 207.166 45.8667 209.833 49.92C212.606 53.8667 214.099 58.3467 214.313 63.36V90.88C214.099 95.8933 212.659 100.427 209.993 104.48C207.326 108.533 203.753 111.733 199.273 114.08C194.793 116.427 189.779 117.6 184.233 117.6ZM187.753 98.24C191.699 98.24 195.113 97.3867 197.993 95.68C200.979 93.8667 203.273 91.4133 204.873 88.32C206.579 85.12 207.433 81.44 207.433 77.28C207.433 73.2267 206.579 69.6533 204.873 66.56C203.273 63.36 200.979 60.9067 197.993 59.2C195.113 57.3867 191.753 56.48 187.913 56.48C183.966 56.48 180.499 57.3867 177.513 59.2C174.633 61.0133 172.339 63.4667 170.633 66.56C169.033 69.6533 168.233 73.2267 168.233 77.28C168.233 81.44 169.033 85.12 170.633 88.32C172.339 91.4133 174.686 93.8667 177.673 95.68C180.659 97.3867 184.019 98.24 187.753 98.24ZM227.113 116H206.313V95.2L209.673 76.32L206.153 57.76V0.319992H227.113V116ZM277.975 117.6C270.935 117.6 264.588 115.84 258.935 112.32C253.282 108.8 248.855 104 245.655 97.92C242.455 91.84 240.855 85.0133 240.855 77.44C240.855 69.76 242.455 62.88 245.655 56.8C248.855 50.72 253.282 45.92 258.935 42.4C264.588 38.88 270.935 37.12 277.975 37.12C283.522 37.12 288.482 38.24 292.855 40.48C297.228 42.72 300.695 45.8667 303.255 49.92C305.922 53.8667 307.362 58.3467 307.575 63.36V91.2C307.362 96.32 305.922 100.853 303.255 104.8C300.695 108.747 297.228 111.893 292.855 114.24C288.482 116.48 283.522 117.6 277.975 117.6ZM281.815 98.24C287.682 98.24 292.428 96.32 296.055 92.48C299.682 88.5333 301.495 83.4667 301.495 77.28C301.495 73.2267 300.642 69.6533 298.935 66.56C297.335 63.36 295.042 60.9067 292.055 59.2C289.175 57.3867 285.762 56.48 281.815 56.48C277.975 56.48 274.562 57.3867 271.575 59.2C268.695 60.9067 266.402 63.36 264.695 66.56C263.095 69.6533 262.295 73.2267 262.295 77.28C262.295 81.44 263.095 85.12 264.695 88.32C266.402 91.4133 268.695 93.8667 271.575 95.68C274.562 97.3867 277.975 98.24 281.815 98.24ZM300.375 116V95.2L303.735 76.32L300.375 57.76V38.72H321.175V116H300.375ZM354.118 117.6C350.278 117.6 347.131 116.32 344.678 113.76C342.224 111.2 340.997 108.053 340.997 104.32C340.997 100.587 342.224 97.44 344.678 94.88C347.131 92.32 350.278 91.04 354.118 91.04C357.851 91.04 360.944 92.32 363.398 94.88C365.851 97.44 367.078 100.587 367.078 104.32C367.078 108.053 365.851 111.2 363.398 113.76C360.944 116.32 357.851 117.6 354.118 117.6Z" fill="#181818"/>
</svg>
